<?xml version="1.0" encoding="utf-8"?>
<!-- Generator: Adobe Illustrator 23.0.0, SVG Export Plug-In . SVG Version: 6.00 Build 0)  -->
<svg version="1.1" id="Capa_1" xmlns="http://www.w3.org/2000/svg" xmlns:xlink="http://www.w3.org/1999/xlink" x="0px" y="0px"
	 viewBox="0 0 1024 1024" style="enable-background:new 0 0 1024 1024;" xml:space="preserve">
<g>
	<path d="M740.49,264.47c0,0,31.07-43.03,35.86-78.88c4.78-35.86-17.93-45.42-17.93-45.42s-96.81,44.22-119.52,26.29
		C616.19,148.54,512.21,133,512.21,133s-103.98,15.54-126.69,33.47C362.81,184.39,266,140.17,266,140.17s-22.71,9.56-17.93,45.42
		c4.78,35.86,35.86,78.88,35.86,78.88s-103.17,116.05-69.08,224.7c51,162.55,195.77,137.45,297.37,295.21
		C613.8,626.62,758.58,651.72,809.57,489.17C843.66,380.52,740.49,264.47,740.49,264.47z M308.82,236.68
		c-2.3,5.38,18.43,25.1-17.42,3.59c-35.86-21.51-21.51-86.05-15.24-69.92c6.27,16.14,73.5,34.96,73.5,34.96
		C348.76,216.96,311.11,231.3,308.82,236.68z M428.26,158.7c11.9-2.71,83.37-13.7,83.95-13.61c0.58-0.09,72.05,10.9,83.95,13.61
		c13.15,2.99,25.7,25.1,10.16,25.7c-15.54,0.6-60.95,8.96-60.95,8.96s-17.93-15.54-17.93-18.53c0-2.99,17.93-16.13,17.93-16.13
		l-14.94-1.79l-18.22,18.22l-18.22-18.22l-14.94,1.79c0,0,17.93,13.15,17.93,16.13c0,2.99-17.93,18.53-17.93,18.53
		s-45.42-8.37-60.95-8.96C402.56,183.8,415.11,161.68,428.26,158.7z M592.13,423.43c-0.02,0.11-0.08,0.22-0.1,0.32
		c-18.65-10.74-61.58-34.95-76.23-43.2V274.98c5.78-2.37,11.51-9.68,14.77-15.44c1.83-3.24,1.2-18.97,1.2-18.97
		s15.03,2.17,8.08,13.37c2.47,1.12,11.21-6.8,11.21-6.8s0.6-14.34,0-17.33c-0.6-2.99-20.92-16.13-20.92-16.13s-9.79-7.17-17.93-7.17
		c-8.14,0-17.93,7.17-17.93,7.17s-20.32,13.15-20.92,16.13c-0.6,2.99,0,17.33,0,17.33s8.74,7.92,11.2,6.8
		c-6.95-11.2,8.08-13.37,8.08-13.37s-0.63,15.73,1.2,18.97c3.26,5.76,8.99,13.07,14.77,15.44v105.58
		c-14.65,8.26-57.58,32.47-76.23,43.2c-0.03-0.11-0.08-0.22-0.1-0.32c-2.99-16.13,29.88-197.21,32.27-201.99
		c2.39-4.78,37.65-38.84,37.65-38.84h10h10c0,0,35.26,34.06,37.65,38.84C562.25,226.23,595.12,407.3,592.13,423.43z M404.19,198.14
		c0,0,22.11-2.99,32.57-1.79c10.46,1.19,25.7,10.46,25.7,10.46s-26,15.84-38.25,16.73C411.96,224.43,404.19,198.14,404.19,198.14z
		 M512.21,467.06c0,0-59.41-21.23-75.83-37.33c15.79-9.06,50.14-28.48,75.83-42.97c25.7,14.48,60.05,33.9,75.83,42.97
		C571.62,445.82,512.21,467.06,512.21,467.06z M600.2,223.54c-12.25-0.9-38.25-16.73-38.25-16.73s15.24-9.26,25.7-10.46
		c10.46-1.2,32.57,1.79,32.57,1.79S612.45,224.43,600.2,223.54z M715.6,236.68c-2.3-5.38-39.95-19.72-40.84-31.37
		c0,0,67.23-18.82,73.5-34.96c6.27-16.13,20.62,48.41-15.24,69.92C697.16,261.78,717.89,242.06,715.6,236.68z"/>
	<path d="M837.49,497c-7.47,46.66-101.03,151.36-205.65,203.44c-104,51.77-117.86,151.17-119.64,181.42
		c-1.78-30.25-15.64-129.65-119.64-181.42C287.95,648.35,194.39,543.66,186.92,497c0,0-90.79,69.04-60.92,160.51
		c29.54,90.47,368.71,185.37,385.95,231.8c0,0.99,0.01,1.52,0.01,1.52c0.05-0.24,0.17-0.5,0.25-0.74c0.07,0.25,0.19,0.5,0.25,0.74
		c0,0,0.01-0.53,0.01-1.52c17.24-46.43,356.41-141.33,385.95-231.8C928.28,566.04,837.49,497,837.49,497z"/>
</g>
</svg>
