<?xml version="1.0" encoding="utf-8"?>
<!-- Generator: Adobe Illustrator 23.0.0, SVG Export Plug-In . SVG Version: 6.00 Build 0)  -->
<svg version="1.1" id="Capa_1" xmlns="http://www.w3.org/2000/svg" xmlns:xlink="http://www.w3.org/1999/xlink" x="0px" y="0px"
	 viewBox="0 0 1024 1024" style="enable-background:new 0 0 1024 1024;" xml:space="preserve">
<style type="text/css">
	.st0{fill:#00D0E2;}
	.st1{fill:#2B454E;}
	.st2{font-family:'RobotoCondensed-Bold';}
	.st3{font-size:124.1692px;}
	.st4{letter-spacing:24;}
	.st5{fill:#6D909D;}
	.st6{font-family:'Roboto-Regular';}
	.st7{font-size:48.288px;}
	.st8{letter-spacing:9;}
</style>
<g>
	<g>
		<polygon class="st0" points="200.88,620.12 200.88,657.93 598.14,657.93 598.14,562.77 200.88,582.31 		"/>
		<polygon class="st1" points="826.11,657.93 826.11,620.12 826.11,582.31 598.14,562.77 598.14,657.93 		"/>
		<polygon class="st1" points="826.11,545.3 826.11,507.49 826.11,469.67 598.14,424.1 598.14,525.77 		"/>
		<polygon class="st0" points="200.88,507.49 200.88,545.3 598.14,525.77 598.14,424.1 200.88,469.67 		"/>
		<polygon class="st0" points="200.88,394.86 200.88,432.67 598.14,387.09 598.14,291.93 200.88,357.04 		"/>
		<polygon class="st1" points="826.11,432.67 826.11,394.86 826.11,357.04 598.14,291.93 598.14,387.09 		"/>
		<polygon class="st0" points="200.88,244.41 200.88,282.23 200.88,320.04 598.14,254.93 598.14,107.68 		"/>
		<polygon class="st1" points="598.14,107.68 598.14,254.93 826.11,320.04 826.11,282.23 826.11,244.41 		"/>
	</g>
	<g>
		<text transform="matrix(1 0 0 1 178.1348 826.123)" class="st1 st2 st3 st4">web site</text>
		<text transform="matrix(1 0 0 1 381.8789 899.7051)" class="st5 st6 st7 st8">designe</text>
	</g>
</g>
</svg>
